# xmcd CD database file
#
# Track frame offsets:
#	150
#	14775
#	33425
#	47426
#	67561
#	80427
#	93754
#	111587
#	147370
#	163826
#	183729
#	196671
#	213856
#
# Disc length: 3033 seconds
#
# Revision: 5
# Processed by: cddbd v1.5.2PL0 Copyright (c) Steve Scherf et al.
# Submitted via: CDex 1.92
#
DISCID=ac0bd70d
DTITLE=Johnny Winter - Step Back
DYEAR=2014
DGENRE=Blues
TTITLE0=Johnny Winter with Blues Brothers Horns - Unchain My Heart
TTITLE1=Johnny Winter with Ben Harper - Can't Hold Out (Talk to Me Baby)
TTITLE2=Johnny Winter with Eric Clapton - Don't Want No Woman
TTITLE3=Johnny Winter with Paul Nelson - Killing Floor
TTITLE4=Who Do You Love
TTITLE5=Johnny Winter with Brian Setzer - Okie Dokie Stomp
TTITLE6=Johnny Winter with Billy Gibbons - Where Can You Be
TTITLE7=Johnny Winter with Joe Bonamassa - Sweet Sixteen
TTITLE8=Death Letter
TTITLE9=Johnny Winter with Jason Ricci - My Babe
TTITLE10=Johnny Winter with Leslie West - Long Tall Sally
TTITLE11=Johnny Winter with Joe Perry - Mojo Hand
TTITLE12=Johnny Winter with Dr. John - Blue Monday
EXTD=YEAR: 2014
EXTT0=
EXTT1=
EXTT2=
EXTT3=
EXTT4=
EXTT5=
EXTT6=
EXTT7=
EXTT8=
EXTT9=
EXTT10=
EXTT11=
EXTT12=
PLAYORDER=
